<svg width="107" height="20" viewBox="0 0 107 20" fill="none" xmlns="http://www.w3.org/2000/svg">
<path d="M98.5617 17.4787C97.431 17.4787 96.3838 17.1914 95.42 16.6168C94.4561 16.0422 93.6777 15.2081 93.0845 14.1146C92.51 13.021 92.2227 11.705 92.2227 10.1665C92.2227 8.60956 92.51 7.27502 93.0845 6.1629C93.6777 5.05078 94.4747 4.19816 95.4756 3.60503C96.4765 3.0119 97.5886 2.71533 98.8119 2.71533C99.5719 2.71533 100.341 2.90069 101.12 3.27139C101.917 3.62356 102.584 4.09621 103.121 4.68934V3.04897H106.402V17.0617H103.121V14.6984C102.695 15.4584 102.083 16.1164 101.286 16.6724C100.508 17.21 99.5997 17.4787 98.5617 17.4787ZM99.3402 14.198C100.007 14.198 100.628 14.0219 101.203 13.6697C101.778 13.3175 102.241 12.8263 102.593 12.1961C102.945 11.5474 103.121 10.7875 103.121 9.9163L103.094 7.77547C102.593 7.20088 102.037 6.74676 101.425 6.41313C100.832 6.07949 100.174 5.91267 99.4514 5.91267C98.6729 5.91267 97.9964 6.11656 97.4218 6.52434C96.8472 6.93212 96.4023 7.46037 96.0872 8.10911C95.7907 8.73931 95.6424 9.42512 95.6424 10.1665C95.6424 10.9079 95.7907 11.5845 96.0872 12.1961C96.4023 12.8078 96.8379 13.299 97.394 13.6697C97.95 14.0219 98.5988 14.198 99.3402 14.198Z" fill="white"/>
<path d="M82.9648 17.0617V3.04903H86.2456V17.0617H82.9648ZM86.2456 9.11007V5.71811C86.746 4.86549 87.3299 4.16114 87.9972 3.60509C88.683 3.04903 89.4429 2.771 90.277 2.771C90.796 2.771 91.2501 2.86367 91.6393 3.04903V6.74682C91.3613 6.58 91.074 6.45026 90.7774 6.35758C90.4809 6.2649 90.1565 6.21857 89.8043 6.21857C88.9703 6.21857 88.2752 6.4966 87.7191 7.05265C87.1816 7.60871 86.6904 8.29452 86.2456 9.11007Z" fill="white"/>
<path d="M74.0961 17.4787C73.0582 17.4787 72.0851 17.2934 71.1768 16.9227C70.2872 16.5334 69.4994 16.0052 68.8136 15.3379C68.1278 14.6706 67.5903 13.8921 67.201 13.0024C66.8118 12.0942 66.6172 11.1304 66.6172 10.1109C66.6172 9.07295 66.8118 8.10911 67.201 7.21941C67.5903 6.32972 68.1278 5.55124 68.8136 4.88396C69.4994 4.19816 70.2872 3.6699 71.1768 3.29919C72.0851 2.90995 73.0582 2.71533 74.0961 2.71533C75.1156 2.71533 76.0701 2.90995 76.9598 3.29919C77.8681 3.6699 78.6651 4.19816 79.3509 4.88396C80.0552 5.55124 80.5927 6.32972 80.9634 7.21941C81.3527 8.10911 81.5473 9.07295 81.5473 10.1109C81.5473 11.1304 81.3527 12.0942 80.9634 13.0024C80.5927 13.8921 80.0552 14.6706 79.3509 15.3379C78.6651 16.0052 77.8681 16.5334 76.9598 16.9227C76.0701 17.2934 75.1156 17.4787 74.0961 17.4787ZM74.0961 14.3092C74.8376 14.3092 75.5048 14.1424 76.0979 13.8087C76.7096 13.4565 77.1915 12.9654 77.5437 12.3352C77.8959 11.705 78.0719 10.9635 78.0719 10.1109C78.0719 9.23976 77.8959 8.48908 77.5437 7.85888C77.1915 7.22868 76.7096 6.74676 76.0979 6.41313C75.5048 6.06096 74.8376 5.88487 74.0961 5.88487C73.3733 5.88487 72.706 6.06096 72.0943 6.41313C71.4827 6.74676 70.9915 7.22868 70.6208 7.85888C70.2686 8.48908 70.0925 9.23976 70.0925 10.1109C70.0925 10.9635 70.2686 11.705 70.6208 12.3352C70.9915 12.9654 71.4827 13.4565 72.0943 13.8087C72.706 14.1424 73.3733 14.3092 74.0961 14.3092Z" fill="white"/>
<path d="M58.982 17.0615L52.5039 3.04883H56.3407L60.0107 12.057L63.8753 3.04883H67.712L61.0672 17.0615H58.982Z" fill="white"/>
<path d="M43.925 17.4787C42.7943 17.4787 41.7471 17.1914 40.7833 16.6168C39.8194 16.0422 39.041 15.2081 38.4478 14.1146C37.8732 13.021 37.5859 11.705 37.5859 10.1665C37.5859 8.60956 37.8732 7.27502 38.4478 6.1629C39.041 5.05078 39.838 4.19816 40.8389 3.60503C41.8398 3.0119 42.9519 2.71533 44.1752 2.71533C44.9351 2.71533 45.7044 2.90069 46.4828 3.27139C47.2799 3.62356 47.9471 4.09621 48.4846 4.68934V3.04897H51.7654V17.0617H48.4846V14.6984C48.0583 15.4584 47.4467 16.1164 46.6497 16.6724C45.8712 17.21 44.9629 17.4787 43.925 17.4787ZM44.7035 14.198C45.3707 14.198 45.9917 14.0219 46.5662 13.6697C47.1408 13.3175 47.6042 12.8263 47.9564 12.1961C48.3086 11.5474 48.4846 10.7875 48.4846 9.9163L48.4568 7.77547C47.9564 7.20088 47.4003 6.74676 46.7887 6.41313C46.1955 6.07949 45.5375 5.91267 44.8147 5.91267C44.0362 5.91267 43.3597 6.11656 42.7851 6.52434C42.2105 6.93212 41.7656 7.46037 41.4505 8.10911C41.154 8.73931 41.0057 9.42512 41.0057 10.1665C41.0057 10.9079 41.154 11.5845 41.4505 12.1961C41.7656 12.8078 42.2012 13.299 42.7573 13.6697C43.3133 14.0219 43.962 14.198 44.7035 14.198Z" fill="white"/>
<path d="M19.9999 10C19.9999 15.5228 15.5228 20 9.99994 20C4.47713 20 0 15.5228 0 10C0 4.47715 4.47713 0 9.99994 0C15.5228 0 19.9999 4.47715 19.9999 10Z" fill="white"/>
<path d="M21.5977 0C27.1205 0 31.5976 4.47715 31.5976 10C31.5976 15.5228 27.1205 20 21.5977 20V0Z" fill="white"/>
</svg>
