<svg width="160" height="30" viewBox="0 0 160 30" fill="none" xmlns="http://www.w3.org/2000/svg">
<path d="M147.841 26.2178C146.145 26.2178 144.574 25.7869 143.128 24.925C141.682 24.0631 140.515 22.812 139.625 21.1716C138.763 19.5312 138.332 17.5572 138.332 15.2496C138.332 12.9141 138.763 10.9123 139.625 9.24411C140.515 7.57593 141.71 6.29699 143.211 5.4073C144.713 4.5176 146.381 4.07275 148.216 4.07275C149.356 4.07275 150.51 4.35078 151.677 4.90684C152.873 5.4351 153.874 6.14408 154.68 7.03377V4.57321H159.601V25.5923H154.68V22.0474C154.041 23.1873 153.123 24.1743 151.928 25.0084C150.76 25.8147 149.398 26.2178 147.841 26.2178ZM149.008 21.2967C150.009 21.2967 150.941 21.0326 151.803 20.5043C152.664 19.9761 153.36 19.2393 153.888 18.294C154.416 17.3209 154.68 16.181 154.68 14.8742L154.638 11.663C153.888 10.8011 153.054 10.1199 152.136 9.61945C151.247 9.11899 150.26 8.86877 149.175 8.86877C148.007 8.86877 146.993 9.1746 146.131 9.78627C145.269 10.3979 144.602 11.1903 144.129 12.1634C143.684 13.1087 143.462 14.1374 143.462 15.2496C143.462 16.3617 143.684 17.3765 144.129 18.294C144.602 19.2115 145.255 19.9483 146.089 20.5043C146.923 21.0326 147.896 21.2967 149.008 21.2967Z" fill="#101C34"/>
<path d="M124.449 25.5923V4.57329H129.37V25.5923H124.449ZM129.37 13.6649V8.57692C130.121 7.29799 130.997 6.24147 131.998 5.40738C133.026 4.57329 134.166 4.15625 135.417 4.15625C136.196 4.15625 136.877 4.29526 137.461 4.57329V10.12C137.044 9.86976 136.613 9.67514 136.168 9.53613C135.723 9.39711 135.237 9.3276 134.709 9.3276C133.457 9.3276 132.415 9.74465 131.581 10.5787C130.774 11.4128 130.038 12.4415 129.37 13.6649Z" fill="#101C34"/>
<path d="M111.144 26.2178C109.587 26.2178 108.128 25.9398 106.765 25.3837C105.431 24.7999 104.249 24.0075 103.22 23.0066C102.192 22.0057 101.385 20.8379 100.802 19.5034C100.218 18.1411 99.9258 16.6953 99.9258 15.1661C99.9258 13.6092 100.218 12.1634 100.802 10.8289C101.385 9.49433 102.192 8.32661 103.22 7.3257C104.249 6.29699 105.431 5.50461 106.765 4.94855C108.128 4.36469 109.587 4.07275 111.144 4.07275C112.673 4.07275 114.105 4.36469 115.44 4.94855C116.802 5.50461 117.998 6.29699 119.026 7.3257C120.083 8.32661 120.889 9.49433 121.445 10.8289C122.029 12.1634 122.321 13.6092 122.321 15.1661C122.321 16.6953 122.029 18.1411 121.445 19.5034C120.889 20.8379 120.083 22.0057 119.026 23.0066C117.998 24.0075 116.802 24.7999 115.44 25.3837C114.105 25.9398 112.673 26.2178 111.144 26.2178ZM111.144 21.4635C112.256 21.4635 113.257 21.2133 114.147 20.7128C115.065 20.1846 115.787 19.4478 116.316 18.5025C116.844 17.5572 117.108 16.4451 117.108 15.1661C117.108 13.8594 116.844 12.7334 116.316 11.7881C115.787 10.8428 115.065 10.1199 114.147 9.61945C113.257 9.09119 112.256 8.82706 111.144 8.82706C110.06 8.82706 109.059 9.09119 108.142 9.61945C107.224 10.1199 106.487 10.8428 105.931 11.7881C105.403 12.7334 105.139 13.8594 105.139 15.1661C105.139 16.4451 105.403 17.5572 105.931 18.5025C106.487 19.4478 107.224 20.1846 108.142 20.7128C109.059 21.2133 110.06 21.4635 111.144 21.4635Z" fill="#101C34"/>
<path d="M88.471 25.592L78.7539 4.573H84.5091L90.0141 18.0852L95.811 4.573H101.566L91.5989 25.592H88.471Z" fill="#101C34"/>
<path d="M65.8875 26.2178C64.1915 26.2178 62.6207 25.7869 61.1749 24.925C59.7292 24.0631 58.5614 22.812 57.6717 21.1716C56.8099 19.5312 56.3789 17.5572 56.3789 15.2496C56.3789 12.9141 56.8099 10.9123 57.6717 9.24411C58.5614 7.57593 59.757 6.29699 61.2583 5.4073C62.7597 4.5176 64.4279 4.07275 66.2629 4.07275C67.4028 4.07275 68.5566 4.35078 69.7243 4.90684C70.9199 5.4351 71.9208 6.14408 72.7271 7.03377V4.57321H77.6482V25.5923H72.7271V22.0474C72.0876 23.1873 71.1701 24.1743 69.9746 25.0084C68.8068 25.8147 67.4445 26.2178 65.8875 26.2178ZM67.0552 21.2967C68.0562 21.2967 68.9876 21.0326 69.8494 20.5043C70.7113 19.9761 71.4064 19.2393 71.9347 18.294C72.4629 17.3209 72.7271 16.181 72.7271 14.8742L72.6854 11.663C71.9347 10.8011 71.1006 10.1199 70.1831 9.61945C69.2934 9.11899 68.3064 8.86877 67.2221 8.86877C66.0543 8.86877 65.0395 9.1746 64.1776 9.78627C63.3157 10.3979 62.6485 11.1903 62.1758 12.1634C61.731 13.1087 61.5086 14.1374 61.5086 15.2496C61.5086 16.3617 61.731 17.3765 62.1758 18.294C62.6485 19.2115 63.3018 19.9483 64.1359 20.5043C64.97 21.0326 65.9431 21.2967 67.0552 21.2967Z" fill="#101C34"/>
<path d="M30 15C30 23.2843 23.2843 30 15 30C6.71573 30 0 23.2843 0 15C0 6.71573 6.71573 0 15 0C23.2843 0 30 6.71573 30 15Z" fill="#101C34"/>
<path d="M32.3984 0C40.6827 0 47.3984 6.71573 47.3984 15C47.3984 23.2843 40.6827 30 32.3984 30V0Z" fill="#101C34"/>
</svg>
