<svg width="24" height="24" viewBox="0 0 24 24" fill="none" xmlns="http://www.w3.org/2000/svg">
<path fill-rule="evenodd" clip-rule="evenodd" d="M16.2427 6.69886C17.3644 7.76766 17.9993 9.24943 17.9993 10.7989C17.9993 12.3483 17.3644 13.8301 16.2427 14.8989L11.9997 18.9989L7.75665 14.8989C6.63486 13.8301 6 12.3483 6 10.7989C6 9.24943 6.63486 7.76766 7.75665 6.69886C10.1318 4.43371 13.8675 4.43371 16.2427 6.69886Z" stroke="white" stroke-width="1.5" stroke-linecap="round" stroke-linejoin="round"/>
<path fill-rule="evenodd" clip-rule="evenodd" d="M14.4016 10.4426C14.3929 11.0704 14.1351 11.669 13.685 12.1067C13.2349 12.5445 12.6293 12.7854 12.0016 12.7766C11.3738 12.7854 10.7682 12.5445 10.3181 12.1067C9.86801 11.669 9.61025 11.0704 9.60156 10.4426C9.62021 9.13569 10.6946 8.09126 12.0016 8.10961C13.3085 8.09126 14.3829 9.13569 14.4016 10.4426V10.4426Z" stroke="white" stroke-width="1.5" stroke-linecap="round" stroke-linejoin="round"/>
</svg>
