<svg width="24" height="24" viewBox="0 0 24 24" fill="none" xmlns="http://www.w3.org/2000/svg">
<path fill-rule="evenodd" clip-rule="evenodd" d="M9.02086 18.997C6.88994 19.0639 5.10629 17.3947 5.03187 15.264V11.53L5.02687 9.664C4.89841 8.98798 5.23952 8.30986 5.85887 8.01L9.90387 5.597C11.203 4.801 12.8388 4.801 14.1379 5.597L18.1829 8.013C18.8022 8.31286 19.1433 8.99098 19.0149 9.667L19.0099 11.534V15.267C18.9338 17.3965 17.1507 19.0639 15.0209 18.997H9.02086Z" stroke="#14213D" stroke-width="1.5" stroke-linecap="round" stroke-linejoin="round"/>
<path d="M5.40582 9.01657C5.04822 8.80754 4.58887 8.92799 4.37984 9.28559C4.17082 9.6432 4.29126 10.1025 4.64887 10.3116L5.40582 9.01657ZM9.93734 12.5341L10.3223 11.8904L10.3158 11.8866L9.93734 12.5341ZM14.1043 12.5341L13.7258 11.8865L13.7194 11.8904L14.1043 12.5341ZM19.3928 10.3116C19.7504 10.1025 19.8709 9.6432 19.6618 9.28559C19.4528 8.92799 18.9935 8.80754 18.6359 9.01657L19.3928 10.3116ZM13.8394 9.72468C14.2413 9.82514 14.6485 9.58082 14.749 9.17897C14.8494 8.77713 14.6051 8.36992 14.2032 8.26946L13.8394 9.72468ZM12.0213 8.49707L12.2032 7.76946C12.0838 7.73961 11.9589 7.73961 11.8394 7.76946L12.0213 8.49707ZM9.83944 8.26946C9.4376 8.36992 9.19328 8.77713 9.29374 9.17897C9.3942 9.58082 9.8014 9.82514 10.2032 9.72468L9.83944 8.26946ZM5.02734 9.66407L4.64887 10.3116L9.55887 13.1816L9.93734 12.5341L10.3158 11.8866L5.40582 9.01657L5.02734 9.66407ZM9.93734 12.5341L9.55237 13.1777C11.0724 14.0869 12.9692 14.0869 14.4893 13.1777L14.1043 12.5341L13.7194 11.8904C12.6734 12.516 11.3683 12.516 10.3223 11.8904L9.93734 12.5341ZM14.1043 12.5341L14.4828 13.1816L19.3928 10.3116L19.0143 9.66407L18.6359 9.01657L13.7259 11.8866L14.1043 12.5341ZM14.0213 8.99707L14.2032 8.26946L12.2032 7.76946L12.0213 8.49707L11.8394 9.22468L13.8394 9.72468L14.0213 8.99707ZM12.0213 8.49707L11.8394 7.76946L9.83944 8.26946L10.0213 8.99707L10.2032 9.72468L12.2032 9.22468L12.0213 8.49707Z" fill="#14213D"/>
</svg>
